<svg width="500" height="320" xmlns="http://www.w3.org/2000/svg" aria-label="Card linking to GitHub for more projects">
  <rect width="100%" height="100%" fill="#1e293b"/>
  
  <!-- GitHub Logo -->
  <g transform="translate(190, 80) scale(5)">
      <path d="M12 .3a12 12 0 00-3.8 23.4c.6.1.8-.3.8-.6v-2.2c-3.3.7-4-1.6-4-1.6-.5-1.4-1.3-1.8-1.3-1.8-1-1 .1-1 .1-1 1.1.1 1.7 1.1 1.7 1.1.9 1.6 2.4 1.2 3 .9.1-.7.4-1.2.8-1.4-2.3-.3-4.7-1.2-4.7-5.1 0-1.1.4-2.1 1-2.8-.1-.3-.5-1.3.1-2.8 0 0 .9-.3 2.8 1.1.8-.2 1.7-.3 2.5-.3s1.7.1 2.5.3c2-1.3 2.8-1.1 2.8-1.1.5 1.5.2 2.5.1 2.8.7.7 1.1 1.7 1.1 2.8 0 3.9-2.4 4.8-4.7 5.1.4.3.8 1 .8 1.8v2.8c0 .3.2.7.8.6A12 12 0 0012 .3" fill="#94a3b8"/>
  </g>

  <text x="50%" y="75%" dominant-baseline="middle" text-anchor="middle" font-family="Inter, sans-serif" font-size="24" fill="#94a3b8" font-weight="600">
    Explore More Projects
  </text>
</svg>