<svg xmlns="http://www.w3.org/2000/svg" fill="none" viewBox="0 0 24 24"><path stroke="currentColor" stroke-linecap="round" stroke-linejoin="round" stroke-width="2" d="M10.325 4.317c.426-1.756 2.924-1.756 3.35 0l.216 1.059a2.25 2.25 0 002.046 1.637l1.09.115c1.826.19 2.68 2.42 1.255 3.65l-.838.868a2.25 2.25 0 00-.573 2.376l.332 1.14c.48 1.65-1.551 3.05-3.012 2.09l-1.018-.68a2.25 2.25 0 00-2.428 0l-1.018.68c-1.46.96-3.492-.44-3.012-2.09l.332-1.14a2.25 2.25 0 00-.573-2.376l-.838-.868c-1.425-1.23-.57-3.46 1.255-3.65l1.09-.115a2.25 2.25 0 002.046-1.637l.216-1.059z"></path><path stroke="currentColor" stroke-linecap="round" stroke-linejoin="round" stroke-width="2" d="M15 12a3 3 0 11-6 0 3 3 0 016 0z"></path></svg>